HIERARCHY
ROOT Hips
{
    OFFSET 0.000000 0.000000 0.000000
    CHANNELS 6 Xposition Yposition Zposition Zrotation Xrotation Yrotation
    JOINT Spine
    {
        OFFSET -0.000000 8.172037 0.000000
        CHANNELS 3 Zrotation Xrotation Yrotation
        JOINT Spine1
        {
            OFFSET -0.000000 18.392342 0.000000
            CHANNELS 3 Zrotation Xrotation Yrotation
            JOINT Neck
            {
                OFFSET -0.000000 18.316809 1.665164
                CHANNELS 3 Zrotation Xrotation Yrotation
                JOINT Head
                {
                    OFFSET -0.000000 13.952258 -1.993180
                    CHANNELS 3 Zrotation Xrotation Yrotation
                    End Site
                    {
                        OFFSET -0.000000 24.914745 0.000000
                    }
                }
            }
            JOINT LeftShoulder
            {
                OFFSET 4.035833 16.062790 -0.310290
                CHANNELS 3 Zrotation Xrotation Yrotation
                JOINT LeftArm
                {
                    OFFSET 12.395579 0.000000 0.000000
                    CHANNELS 3 Zrotation Xrotation Yrotation
                    JOINT LeftForeArm
                    {
                        OFFSET 26.414022 0.000000 0.000000
                        CHANNELS 3 Zrotation Xrotation Yrotation
                        JOINT LeftHand
                        {
                            OFFSET 28.641636 0.000000 0.000000
                            CHANNELS 3 Zrotation Xrotation Yrotation
                            End Site
                            {
                                OFFSET 14.948848 0.000000 0.000000
                            }
                        }
                    }
                }
            }
            JOINT RightShoulder
            {
                OFFSET -3.919767 16.062790 -0.310290
                CHANNELS 3 Zrotation Xrotation Yrotation
                JOINT RightArm
                {
                    OFFSET -12.395579 0.000000 0.000000
                    CHANNELS 3 Zrotation Xrotation Yrotation
                    JOINT RightForeArm
                    {
                        OFFSET -26.414022 0.000000 0.000000
                        CHANNELS 3 Zrotation Xrotation Yrotation
                        JOINT RightHand
                        {
                            OFFSET -28.641636 0.000000 0.000000
                            CHANNELS 3 Zrotation Xrotation Yrotation
                            End Site
                            {
                                OFFSET -14.948848 0.000000 0.000000
                            }
                        }
                    }
                }
            }
        }
    }
    JOINT LeftUpLeg
    {
        OFFSET 9.965899 0.000000 0.000000
        CHANNELS 3 Zrotation Xrotation Yrotation
        JOINT LeftLeg
        {
            OFFSET -0.000000 -49.671295 0.000000
            CHANNELS 3 Zrotation Xrotation Yrotation
            JOINT LeftFoot
            {
                OFFSET -0.000000 -36.155865 0.000000
                CHANNELS 3 Zrotation Xrotation Yrotation
                JOINT LeftToeBase
                {
                    OFFSET -0.000000 -6.477834 14.948848
                    CHANNELS 3 Zrotation Xrotation Yrotation
                    End Site
                    {
                        OFFSET -0.000000 0.000000 3.986359
                    }
                }
            }
        }
    }
    JOINT RightUpLeg
    {
        OFFSET -9.965899 0.000000 0.000000
        CHANNELS 3 Zrotation Xrotation Yrotation
        JOINT RightLeg
        {
            OFFSET -0.000000 -49.671295 0.000000
            CHANNELS 3 Zrotation Xrotation Yrotation
            JOINT RightFoot
            {
                OFFSET -0.000000 -36.155865 0.000000
                CHANNELS 3 Zrotation Xrotation Yrotation
                JOINT RightToeBase
                {
                    OFFSET -0.000000 -6.477834 14.948848
                    CHANNELS 3 Zrotation Xrotation Yrotation
                    End Site
                    {
                        OFFSET -0.000000 0.000000 3.986359
                    }
                }
            }
        }
    }
}
MOTION
Frames:    12
Frame Time:    0.010000
-13.232840    96.807610    33.693657    0.589575    -10.103424    -177.938583    -1.816113    -13.509127    -0.498657    -0.997061    -0.023406    -0.283750    6.002048    18.037621    1.058661    -2.432191    -9.084563    0.668310    9.085717    6.989860    5.652581    -66.752419    34.940109    -24.385315    -14.340244    4.128056    -39.586128    -0.666683    -1.000129    -10.247392    -4.679806    7.772791    1.247585    65.735970    13.837806    6.287182    21.617743    11.286768    44.210808    3.588869    2.651784    6.257176    7.572079    -10.544307    7.444868    -5.952931    15.433084    3.868234    0.365430    -11.002776    -2.819628    0.000000    0.000000    0.000000    -7.600118    -9.440327    0.961666    7.561490    14.491301    2.955822    -19.127377    -9.360577    1.660575    0.000000    0.000000    0.000000    
-13.214834    96.769669    33.737926    0.682951    -10.171721    -177.790100    -1.831217    -13.405363    -0.507264    -0.928173    -0.064392    -0.292854    6.148746    18.243227    1.086271    -2.693543    -9.640903    0.641502    9.073807    6.962721    5.545502    -66.705544    34.834980    -24.377697    -14.597791    4.119895    -39.590542    -0.457990    -1.121504    -10.393579    -4.701703    7.774270    1.208928    65.677063    13.767925    6.342912    21.759882    11.199372    44.241554    3.380223    2.485063    6.284311    7.719820    -10.880573    7.454640    -6.010020    15.912669    3.743230    0.351319    -11.219853    -2.777037    0.000000    0.000000    0.000000    -7.528464    -9.645787    0.857416    7.559376    14.798948    2.971979    -19.085573    -9.480756    1.553584    0.000000    0.000000    0.000000    
-13.198434    96.734581    33.776348    0.782471    -10.242315    -177.646286    -1.841399    -13.317482    -0.497325    -0.852226    -0.088416    -0.283260    6.079134    18.318882    1.016796    -2.633620    -9.914872    0.579712    9.043344    6.961400    5.432651    -66.547287    35.098991    -24.474258    -13.456110    4.623280    -39.460163    -1.418271    -0.080325    -11.500121    -4.699454    7.758984    1.164663    65.619507    13.759076    6.352350    21.828508    11.064121    44.300007    3.016888    2.289999    6.468018    7.874102    -11.199869    7.518420    -6.068807    16.328058    3.882281    0.275555    -11.364066    -3.053329    0.000000    0.000000    0.000000    -7.461936    -9.854498    0.789456    7.598919    15.096698    2.942666    -19.112879    -9.580091    1.457474    0.000000    0.000000    0.000000    
-13.181798    96.701721    33.804665    0.877184    -10.298690    -177.491684    -1.860493    -13.213185    -0.494003    -0.795585    -0.106458    -0.279397    6.031891    18.317301    0.944658    -2.559589    -10.087604    0.516645    9.033715    6.957543    5.334806    -66.404503    35.087780    -24.606689    -14.858345    3.842213    -39.626698    0.142738    -1.555283    -10.471140    -4.673474    7.778165    1.157624    65.667175    14.097238    6.370392    21.251394    10.703335    44.520691    3.174383    2.129747    6.533618    8.019097    -11.480377    7.647328    -6.092797    16.729113    3.696445    0.196052    -11.554227    -3.068034    0.000000    0.000000    0.000000    -7.408589    -10.019231    0.679467    7.658965    15.360236    2.876556    -19.125786    -9.669271    1.379680    0.000000    0.000000    0.000000    
-13.169071    96.672249    33.837109    0.953061    -10.390492    -177.325546    -1.906578    -13.119171    -0.498635    -0.742115    -0.150239    -0.280356    5.966631    18.276093    0.831803    -2.481153    -10.101397    0.413258    9.037320    6.936356    5.235369    -66.301270    34.854927    -24.711231    -15.226334    4.065703    -39.372761    0.387660    -1.451303    -10.689689    -4.675657    7.730808    1.201956    65.608276    13.909928    6.295751    21.502111    10.596691    44.530716    2.915598    1.900749    6.661664    8.129601    -11.778869    7.715414    -6.117826    17.081503    3.583206    0.093026    -11.731662    -3.096655    0.000000    0.000000    0.000000    -7.371620    -10.228792    0.404573    7.675903    15.677040    2.830394    -19.125431    -9.812816    1.413667    0.000000    0.000000    0.000000    
-13.152406    96.644775    33.871769    1.034063    -10.506019    -177.100952    -1.968104    -13.036255    -0.537796    -0.690018    -0.219039    -0.314382    5.904491    18.260677    0.770079    -2.398793    -10.183769    0.364115    9.029388    6.955442    5.140017    -66.119614    35.325394    -24.660130    -14.907714    3.769337    -39.792187    0.460017    -1.700422    -10.574748    -4.648930    7.695990    1.284719    65.572197    13.893313    6.206131    21.473394    10.412915    44.657417    2.779027    1.689204    6.629956    8.243543    -12.117329    7.709465    -6.157246    17.438997    3.440651    0.099601    -11.883500    -3.164569    0.000000    0.000000    0.000000    -7.325799    -10.372250    0.728875    7.846176    15.708462    2.048781    -19.151951    -9.905676    1.516900    0.000000    0.000000    0.000000    
-13.128942    96.621185    33.915493    1.127457    -10.640702    -176.792542    -2.063339    -12.929489    -0.603487    -0.617245    -0.344331    -0.371691    5.940868    18.344229    0.675379    -2.475523    -10.348698    0.250121    9.062850    6.960031    4.965787    -66.110947    35.282951    -24.673702    -13.563924    4.641895    -39.539948    -0.827532    -0.167759    -11.936209    -4.606590    7.725658    1.341789    65.514511    13.872232    6.154881    21.561863    10.178809    44.745396    2.500944    1.379241    6.697642    8.358836    -12.509618    7.563581    -6.234634    17.774101    3.487374    0.134638    -11.974211    -3.390910    0.000000    0.000000    0.000000    -7.262335    -10.600807    0.327233    7.787887    16.011469    1.866379    -19.129436    -10.066610    1.673199    0.000000    0.000000    0.000000    
-13.098119    96.597160    33.968102    1.242848    -10.819562    -176.358566    -2.205177    -12.834108    -0.721759    -0.495657    -0.471793    -0.475870    5.908930    18.410666    0.578103    -2.471763    -10.506471    0.149521    9.076398    6.931071    4.774993    -66.105614    35.166813    -24.682312    -14.162714    4.430609    -39.507996    -0.079751    -0.672481    -11.618467    -4.578428    7.758615    1.323962    65.538284    14.239680    6.151036    21.239429    9.691380    44.982338    2.377165    0.965810    6.825856    8.485616    -13.024602    7.366866    -6.308942    18.206972    3.421433    0.146731    -12.028742    -3.509415    0.000000    0.000000    0.000000    -7.184679    -10.959667    -0.746256    7.528338    16.626793    2.138183    -19.113344    -10.301811    1.928852    0.000000    0.000000    0.000000    
-13.038614    96.578453    34.032574    1.359803    -10.977225    -175.777206    -2.504329    -12.608936    -0.912507    -0.264112    -0.708343    -0.637523    6.088698    18.467558    0.455212    -2.738768    -10.610246    -0.035595    9.108798    6.963495    4.556123    -66.065063    35.151901    -24.797911    -14.301454    4.321692    -39.406570    0.237255    -0.850764    -11.865277    -4.480857    7.746001    1.331212    65.404099    14.203286    6.022359    21.331079    9.466198    45.139942    2.118325    0.651002    7.007311    8.615080    -13.605593    7.029247    -6.425395    18.713013    3.322388    0.075031    -12.056815    -3.548341    0.000000    0.000000    0.000000    -7.101164    -11.248860    -1.408712    7.371572    17.096785    1.855004    -19.051739    -10.522926    2.180552    0.000000    0.000000    0.000000    
-12.988082    96.542648    34.082043    1.461669    -11.100977    -175.135330    -2.842518    -12.351101    -1.109047    -0.010337    -0.913581    -0.801559    5.944801    18.370155    0.336933    -2.517911    -10.549157    -0.114545    9.171325    6.972248    4.313361    -66.147560    34.181931    -25.144350    -15.412851    4.905107    -38.586002    1.030202    -0.631276    -12.187057    -4.361393    7.685164    1.322340    65.149757    13.876576    5.838080    21.821148    9.511690    45.214989    1.708360    0.443236    7.053221    8.726111    -14.168445    6.793641    -6.523771    19.273726    3.124402    -0.062851    -12.110561    -3.630179    0.000000    0.000000    0.000000    -7.069151    -11.486001    -2.052950    7.245072    17.603228    1.658267    -18.979963    -10.813435    2.314751    0.000000    0.000000    0.000000    
-12.936181    96.485138    34.121895    1.534360    -11.171044    -174.416290    -3.285249    -12.054570    -1.330593    0.337173    -1.048007    -0.980616    6.233135    18.588627    0.122699    -3.053768    -11.015198    -0.454824    9.212550    6.973833    4.045663    -66.189331    34.133884    -25.278688    -15.461861    4.888205    -38.533684    1.464022    -0.704977    -12.256966    -4.289722    7.575470    1.284606    65.142830    14.233666    5.632509    21.560541    8.911430    45.585968    1.669873    -0.136962    7.117794    8.803732    -14.690751    6.800882    -6.537184    19.917902    2.659009    -0.348691    -12.272114    -3.692634    0.000000    0.000000    0.000000    -7.083421    -11.712617    -2.665251    7.147067    18.270897    1.408017    -18.903778    -11.212793    2.302560    0.000000    0.000000    0.000000    
-12.867726    96.404861    34.164486    1.600723    -11.165148    -173.579163    -3.852908    -11.632891    -1.569809    0.809925    -1.161277    -1.169054    6.209969    18.443081    -0.087125    -3.087056    -10.955561    -0.687058    9.238179    6.962542    3.707133    -66.132294    34.723537    -25.303143    -15.850348    3.748330    -39.341152    2.635736    -2.214531    -11.212902    -4.222637    7.521540    1.169584    65.021820    14.336512    5.484660    21.167377    8.650915    45.892345    1.984225    -0.275642    7.178961    8.883996    -15.178926    7.064705    -6.463328    20.653757    2.016371    -0.796626    -12.490416    -3.940445    0.000000    0.000000    0.000000    -7.115346    -11.942534    -3.283340    7.081362    19.176350    1.108920    -18.884415    -11.713886    2.187860    0.000000    0.000000    0.000000    
